<svg width="100" height="100" xmlns="http://www.w3.org/2000/svg">
 <!-- Created with Method Draw - http://github.com/duopixel/Method-Draw/ -->

 <g>
  <title>background</title>
  <rect fill="none" id="canvas_background" height="102" width="102" y="-1" x="-1"/>
  <g display="none" overflow="visible" y="0" x="0" height="100%" width="100%" id="canvasGrid">
   <rect fill="url(#gridpattern)" stroke-width="0" y="0" x="0" height="100%" width="100%"/>
  </g>
 </g>
 <g>
  <title>Layer 1</title>
  <path id="svg_11" d="m20.87474,70.31145c-0.01874,-22.52648 -0.03747,-45.05298 -0.05622,-67.57946c16.92004,0.25891 33.91185,-0.61335 50.7746,0.66484c8.22304,2.91951 7.03798,21.09379 6.90444,34.66857c-0.36072,10.23705 4.80445,30.53078 -8.61129,33.5811c-6.68846,0.00036 -6.71478,2.85805 -6.03208,8.02742c0.79226,7.74439 -1.50775,25.09278 -12.49532,14.09673l-30.48414,-23.4592l0,0zm51.78349,-7.3639c0.02719,-20.24843 -0.1996,-37.52325 -1.32212,-50.86407c-9.97359,-4.53786 -23.45068,-2.32947 -34.73524,-2.39843c-4.43593,2.15812 10.52276,9.32413 13.69536,12.10467c12.04432,5.97858 15.63783,16.85122 13.558,29.13891c0,4.77986 0,9.55972 0,14.33958c2.22108,-0.00269 6.81616,-1.10346 8.80401,-2.32066l0,0.00001z" stroke-opacity="null" stroke-width="0.6" stroke="#000" fill="#00bfbf"/>
 </g>
</svg>